<mxfile host="65bd71144e">
    <diagram id="Gv08qJLJ4M2TnWDcXs2b" name="ページ1">
        <mxGraphModel dx="2961" dy="2147" grid="1" gridSize="10" guides="0" tooltips="1" connect="1" arrows="1" fold="1" page="1" pageScale="1" pageWidth="827" pageHeight="1169" math="0" shadow="1">
            <root>
                <mxCell id="0"/>
                <mxCell id="1" parent="0"/>
                <mxCell id="26" value="" style="rounded=0;whiteSpace=wrap;html=1;fontSize=21;strokeWidth=5;fillColor=#f5f5f5;fontColor=#333333;strokeColor=#666666;" vertex="1" parent="1">
                    <mxGeometry x="-680" y="-800" width="2050" height="1380" as="geometry"/>
                </mxCell>
                <mxCell id="4" value="" style="rounded=0;whiteSpace=wrap;html=1;strokeColor=#003366;fillColor=#FFFFFF;strokeWidth=5;" vertex="1" parent="1">
                    <mxGeometry x="20" y="25" width="814.9" height="500" as="geometry"/>
                </mxCell>
                <mxCell id="23" value="" style="rounded=0;whiteSpace=wrap;html=1;fontSize=21;strokeWidth=5;strokeColor=#003366;fillColor=#FFFFFF;" vertex="1" parent="1">
                    <mxGeometry x="120" y="100" width="660" height="390" as="geometry"/>
                </mxCell>
                <mxCell id="9" style="edgeStyle=none;html=1;strokeWidth=6;endArrow=block;endFill=1;shape=flexArrow;strokeColor=#003366;fillColor=#FFFFFF;" edge="1" parent="1">
                    <mxGeometry relative="1" as="geometry">
                        <mxPoint x="770" y="250" as="sourcePoint"/>
                        <mxPoint x="880" y="250" as="targetPoint"/>
                    </mxGeometry>
                </mxCell>
                <mxCell id="16" style="edgeStyle=none;shape=flexArrow;html=1;fontSize=21;startArrow=none;endArrow=block;endFill=0;strokeWidth=10;startFill=0;strokeColor=#003366;" edge="1" parent="1" source="13">
                    <mxGeometry relative="1" as="geometry">
                        <mxPoint x="-160" y="-618" as="targetPoint"/>
                    </mxGeometry>
                </mxCell>
                <mxCell id="13" value="" style="shape=actor;whiteSpace=wrap;html=1;fontSize=21;strokeWidth=5;" vertex="1" parent="1">
                    <mxGeometry x="-420" y="-720" width="152" height="202" as="geometry"/>
                </mxCell>
                <mxCell id="19" style="edgeStyle=none;shape=flexArrow;html=1;fontSize=21;startArrow=none;startFill=0;endArrow=block;endFill=0;strokeWidth=10;strokeColor=#003366;" edge="1" parent="1">
                    <mxGeometry relative="1" as="geometry">
                        <mxPoint x="30" y="-619" as="sourcePoint"/>
                        <mxPoint x="110" y="-619" as="targetPoint"/>
                    </mxGeometry>
                </mxCell>
                <mxCell id="14" value="" style="dashed=0;outlineConnect=0;html=1;align=center;labelPosition=center;verticalLabelPosition=bottom;verticalAlign=top;shape=mxgraph.weblogos.github;fontSize=21;strokeWidth=5;" vertex="1" parent="1">
                    <mxGeometry x="-150" y="-700" width="163" height="163" as="geometry"/>
                </mxCell>
                <mxCell id="18" value="" style="shape=image;verticalLabelPosition=bottom;labelBackgroundColor=#ffffff;verticalAlign=top;aspect=fixed;imageAspect=0;image=https://cdn-ak.f.st-hatena.com/images/fotolife/h/hrb-umegaki-keisuke/20201216/20201216095043.png;imageBorder=none;strokeWidth=8;" vertex="1" parent="1">
                    <mxGeometry x="120" y="-710" width="181" height="181" as="geometry"/>
                </mxCell>
                <mxCell id="27" value="" style="rounded=0;whiteSpace=wrap;html=1;fontSize=21;strokeColor=#003366;strokeWidth=5;fillColor=#FFFFFF;" vertex="1" parent="1">
                    <mxGeometry x="20" y="-70" width="130" height="140" as="geometry"/>
                </mxCell>
                <mxCell id="3" value="" style="shape=image;verticalLabelPosition=bottom;labelBackgroundColor=#ffffff;verticalAlign=top;aspect=fixed;imageAspect=0;image=https://www.indetail.co.jp/wp-content/uploads/2014/10/heroku-logotype-vertical-purple.png;" vertex="1" parent="1">
                    <mxGeometry x="-4" y="-90" width="180" height="189" as="geometry"/>
                </mxCell>
                <mxCell id="32" value="" style="group" vertex="1" connectable="0" parent="1">
                    <mxGeometry x="-10" y="-430" width="510" height="300" as="geometry"/>
                </mxCell>
                <mxCell id="31" value="" style="rounded=0;whiteSpace=wrap;html=1;fontSize=26;fontColor=#000000;strokeColor=#003366;strokeWidth=4;fillColor=#FFFFFF;" vertex="1" parent="32">
                    <mxGeometry x="-10" y="-10" width="510" height="300" as="geometry"/>
                </mxCell>
                <mxCell id="25" value="" style="shape=image;verticalLabelPosition=bottom;labelBackgroundColor=#ffffff;verticalAlign=top;aspect=fixed;imageAspect=0;image=https://i0.wp.com/qs.nndo.jp/wp-content/uploads/2018/01/1aa709ac8d630f59cb681bcb3530e4e9.png?fit=168%2C170;" vertex="1" parent="32">
                    <mxGeometry x="269.9990909090909" y="70" width="196.52" height="198.86" as="geometry"/>
                </mxCell>
                <mxCell id="24" value="" style="shape=image;verticalLabelPosition=bottom;labelBackgroundColor=#ffffff;verticalAlign=top;aspect=fixed;imageAspect=0;image=https://raw.githubusercontent.com/haya14busa/i/d598ed7dc49fefb0018e422e4c43e5ab8f207a6b/reviewdog/reviewdog.logo.png;" vertex="1" parent="32">
                    <mxGeometry x="50" y="80" width="182.5" height="196" as="geometry"/>
                </mxCell>
                <mxCell id="33" value="&lt;font style=&quot;font-size: 29px&quot;&gt;&lt;b&gt;自動コードレビュー&lt;/b&gt;&lt;/font&gt;" style="rounded=0;whiteSpace=wrap;html=1;fontSize=26;fontColor=#000000;strokeColor=#003366;strokeWidth=4;fillColor=#FFFFFF;" vertex="1" parent="32">
                    <mxGeometry x="-10" y="-10" width="510" height="60" as="geometry"/>
                </mxCell>
                <mxCell id="35" value="" style="group" vertex="1" connectable="0" parent="1">
                    <mxGeometry x="890" y="130" width="270" height="260" as="geometry"/>
                </mxCell>
                <mxCell id="34" value="" style="rounded=0;whiteSpace=wrap;html=1;fontSize=29;fontColor=#000000;strokeColor=#003366;strokeWidth=4;fillColor=#FFFFFF;" vertex="1" parent="35">
                    <mxGeometry width="270" height="260" as="geometry"/>
                </mxCell>
                <mxCell id="11" value="画像保存・取り出し" style="text;html=1;align=center;verticalAlign=middle;whiteSpace=wrap;rounded=0;strokeWidth=4;fontSize=26;fillColor=#FFFFFF;strokeColor=#003366;fontColor=#000000;fontStyle=1" vertex="1" parent="35">
                    <mxGeometry width="270" height="52" as="geometry"/>
                </mxCell>
                <mxCell id="6" value="" style="shape=image;verticalLabelPosition=bottom;labelBackgroundColor=#ffffff;verticalAlign=top;aspect=fixed;imageAspect=0;image=https://cdn-ssl-devio-img.classmethod.jp/wp-content/uploads/2018/06/cloudinary400x400.png;strokeWidth=6;" vertex="1" parent="35">
                    <mxGeometry x="50" y="60" width="170" height="170" as="geometry"/>
                </mxCell>
                <mxCell id="38" value="" style="group" vertex="1" connectable="0" parent="1">
                    <mxGeometry x="470" y="190" width="290" height="220" as="geometry"/>
                </mxCell>
                <mxCell id="29" value="" style="rounded=0;whiteSpace=wrap;html=1;fontSize=21;strokeColor=#003366;strokeWidth=5;fillColor=#FFFFFF;" vertex="1" parent="38">
                    <mxGeometry width="290" height="220" as="geometry"/>
                </mxCell>
                <mxCell id="2" value="" style="shape=image;verticalLabelPosition=bottom;labelBackgroundColor=#ffffff;verticalAlign=top;aspect=fixed;imageAspect=0;image=https://weseek.co.jp/tech/wp-content/uploads/2021/08/rails.png;" vertex="1" parent="38">
                    <mxGeometry x="24.166666666666664" y="30.002500000000012" width="240.80874999999997" height="160.68416666666664" as="geometry"/>
                </mxCell>
                <mxCell id="39" value="" style="group" vertex="1" connectable="0" parent="1">
                    <mxGeometry x="160" y="190" width="290" height="220" as="geometry"/>
                </mxCell>
                <mxCell id="30" value="" style="rounded=0;whiteSpace=wrap;html=1;fontSize=21;strokeColor=#003366;strokeWidth=5;fillColor=#FFFFFF;" vertex="1" parent="39">
                    <mxGeometry width="290" height="220" as="geometry"/>
                </mxCell>
                <mxCell id="21" value="" style="shape=image;verticalLabelPosition=bottom;labelBackgroundColor=#ffffff;verticalAlign=top;aspect=fixed;imageAspect=0;image=data:image/png,iVBORw0KGgoAAAANSUhEUgAAAOEAAADhCAMAAAAJbSJIAAAAwFBMVEX///8xYZIAAAAsXpApXI8lWo67u7v19fX8/PyXrMNvkLFfX1/T09P09PTw8PDPz882NjZ2dnbq6uo8bJrh4eGtra0KCgohISFnZ2fIyMgXFxcwMDDx9fgpKSlFRUWhoaE9PT2Kiop/f39TU1OXl5caGhrc3Ny3t7d3d3ejo6ONjY1YWFhtbW3i6fB6lLOCgoK7ytpIcZzL1+OrvdHX3+jC0N6QqMJLS0tjh6yHob5YfKOjuM3m7fMUU4ppiKpOeqT25FigAAAbx0lEQVR4nO1dB3fqPA8OGRA2BRJW2LOFsPf8///qs2QHkpBBW8J9+x2ec09vSwZ+YlmWZFnhuDfeeOONN95444033niDk3ulvvJZ/2p+dT6Vfqn3r9vzVKTCzVG7lqkWul2V53m13C1UM7X24LMn/+umISK9RCkMKKUT2Yj7eal0+KvdaGQqmUZtpJQSKfw0G44XeFeUG0r+RTQckcymO3HV1qhMq57OppKWEyOpUsuBR7Feb7izM1BTsv+mK5O9Uty1VZViP90zGpZNNMv+RAgKlQYiY3sahU4i6d2YAJANT6o+7a2M6uFeksv2i77Uqu2PZqdT74dLFEq989WKV27iUWiWXtuPcn/UtT39DIywrq3larv1aeZXrRUHk+bX12RQ3FSMS4v1PhmUdwQi+VL/c3B9jNXOK7VrdnTrv+6w0ycqJpHo9ciPUimstGr2oUm7tEmI9MgITUYiqVS2l0iX+pN2K5zwGmWpRPj6hDb9l3VjuHb90k/SZNv3yslsPh+eWFVIt9NzUrPJrP/4SvUmbBR3W9knMfDBl9FFnXvRukKWU6XJVWFMUn43lY/zxS4W2+732+02tl7MNdPBrPGVlcQzCPggMqFfljHLjEygafDTyjnZ2VR5tXgdQXJE07Tj8Uh+auZTjzHhdJIkURAFQSQ/Jel0ErYLXTPOSQ3YEA8HyQ0R+aLjfmIIjHZczhfR3Th2jsXGu+hiNdf1o6nxiaZC/5KPy2k0NiNtB+S2u+hqqRs9JU9jOSFkhSCdLof5kZ0R3lCKfQ+b4hmQO5ZBL+vT9TYHT1/Epw8PX8rtY9HpXNcsF2rzwzYEvWQ0H04N7XdTQxy16VmwcyQkQ+epTk/IMqHvBDs1KjggNmw4zKNbECp7s0jrhdDZPJbk1S53dx4yEGe7BaOgH0Li/SmicF7QfowoqL3KnSB7MYWzxIaOq2P0Ijm02miZJFxiB8pRX8+c+LHODG2jS3r71VZyulNovEKRkcNIsaAEOGsUTQpttQ2586NNEw/Ylune+0whtI/SftR3Dr1ITpit8VHJPUoxOHXTx4FQwt8Pd5rhniFt18LvSQDH2QLvqkXvByMev1BJzePU2A1q0pDxCdahX+SDh4AaBMdAUF6f/E5EDqct5TCdOd5YPK3wcJbOi77z68+gwAMcgr8mL5wGjK3NW/1xgsAhNEWZnl+cJTW0wMMl1KifgRBMgrPUVeDXqaMsWZHDh754lCDoHKqY5jNnijlKkarzQBiGM+TOcZjpj86SZIG4g2tW/qPVTGKHCme+d9E3SDHZuimDJwOsmS6Kx/oBGQ3BsFruv0OQIIbzxsplLM5QLMLAcBQAwTwIaQNGoe6vHEPSgZyo7b7Hj4AO3qlz14sXONprg1kcAMMwDPEi/DZ2FCILhBwMKZeGel64h76XD84XSjEip8kmzIkBMFTIfdU++WX5wCiUphx4DP7SfH/lBdXN2oUi8K+D7fZ8jz8FA7wL81DUv5kCTtBT/752IrEFfXI8O1JE4Qdpwmf9XPQ2TPq12AOKFMy14/lHDEPSDijOHSVcjHF0IKrK0xmmYRr6gK+++BthOVCJ8x/IKAVacAeny4ULR3We+vw5P2x42IucbwvFMRFS+QGF5AzhMiffI28drydHUiMwHp9NUAZFw8N0H31Az0An6D/kBxTHOJk62uBEgiMfQTCMdJitpI19hU+YQR84StmjQDl1MiwkomnlQRBSivGZMvlF91c01KnwH67uoM9Id1A2yLAVhKZJgWS0uYcMMQFU+vFxk9sBEjwkeXE/Eq8Mnz5bZIeE4YADy9+PoZCD6f4B/8oLIpig+vb+u9g4VJ/u52fB+/0iv6x8GyfsYa6I/VSTMoZnkPTFPUOO6tLn2zR5iMh2uEcMFWEMM/YDpp0n0O5b2mcMIQdPuxiEXZqHCR9G99Rf+tbQtt/xA2XDQYTA9pzELUdn/MrzGXaNCd+fYRRO+y3DkAQj0e4pSmPyYWJDld6TGRYeZSjkQNN/3zM03wIgQXdpNttWgqcHlnfx+QwhFtx/iCG6P4ZrgDFxQXANCDuwC+Vml/1+f9mDu2tzZHB0KkwlPBfZDGPoOw6FPWGowaxJeOVm2/FutxufZ7mHdKuQ2+8OS7YoAj9WVitYAtbgHz4/QwPnw4c0jQDSpe9Jv81i6+vCy3wx9nf4hdDZWMQwYHe3ZWZePT+wn5ywKKXvbCGcgdBM2h9WR/MdtKm/NRTV7d+rWxgKexnW2AOJJqLlPeHuxMaBIai76XaxvHvMfgafuLguJ2pHtjhq7UMRnONEIwhVyskg/HHuAQdYgOnweO0MWVuu5mzJ1Nviw+ZDX69jZ6JptufoHUNUNCWVjpdnA1ZlapyDmXHH8HC7SJvGLjnS6bnL2iu+xEDXcS6w4H2SyHQRu2eos5YEsTRTYv7h0c91F6bsCnm+hUVf0kLC8TQDY1X20DY0wro+5da6LB93TNwt3Y4BLlQ0QazM9GpUg8nOS3ymZtBFIm21P2HjLoulvlycQ2hKe0TLReifaShHV0uJMSPAusDUPOylnUa1ejGIZeA8rI6CQe8XxUCG8nx8Yk8iSq8/5DC04eo10ml0J2Ffk74kH0GnHiwPAcQD7Md6EKvAkSabLvwiUSil09v60Y5er+WgAzhXMcXAAJkbxDEx+pZrOA+sv7X5zti/MFzSARCktlKRc13CtDK8dbQwo+NyIW493UYJdBF4JOJlvcYFdOQzNn2ZGIMQHhmGlWByTsNlGhH2m9UEkEazcM0OuqavcyIuKEbdBqIUlVl4DVM52NKHJfwswikRYiA3g0k4KWWo36n5eO+CffgIodllRn5i587dBqK0lq1eJTq71uA+DsPgEqPAs1ZhHtr59CHM+NbBKuCSMUZRj26PB8fh0jRM0dk1CwyNjhDbqhDI8ihBk9nePisz90r+yoEMI81tFItbDQ120+mc1QOmNg/xDVsB5SnA03sk2ibYW3brA525VY6XzXC2uHWxtLY/KZCBbBDhbgNhMsaH5P+jt2UqxFyeggBTneZqEp10TGK5MYTxbJJ2KqTEPM4EJaRcfkMsU1i58FamrgxDoaWVgxVoVU9NfyND031BNrg2z4+CElIuAiEueH7eqsZVSkMSTOGuHjSOu+UtBmxnSIW0QKO2AQFCzRgy9SLowfAEvbRyYyjkZDTbrAyvUkrDP3WVrwaYRKt0qao5PtCHTtaZBPkwK9fZVFpanp6NIXYxF6dOalDoVYjdBuaEpzJ1nS2o2bJyvVaCC/Vr+BBTjm6yIKJNWqFSFBhqTJF5OlDCnZa/UgCzZe7KEMX0NtsKlhkfl7dhSg4qaY/ig61Mesbb7qw2E0PNiyHVplctjGH96+oTymx+GEQo2IwwC8UePRmib+HM0LMPaZTu6k3Y7FKI2/ULASW0XREBByrvHYygHrBjQEY6eGoath6wuv51vPkWOEZhI0Q5UIIcVzVmRI+BKMwh1OHIEHWpR/+jkroaFGb/EPVMuhJENN+KJnNdvJoJ8RZn2+w097mUGmYrw8HCFR5kSNdLlYBCUGaAcwbup+4lpRwwdDzB02rDazGoYyQJ3wY0yAWXb5DpOOjNXRGVzLh5n8wvziXhi1neXgzFvTmZ6qqUBQhfoJ4Lfoce84I9egInLsdIh3A+enhP7BxQRjKLItxcaTBJk8Mgje4rFDYQPeZtV4Y0nc87Usc6kf6xYwxpTnzpJfu6uB54wRGrM+7E0DH0j8vWPotzaNkxR9hgiOIKflPxBfsPU8RHLJDvkV1jZmyivmdIFaVfiriQg/6iqZeMoYiLwb3A9iBYIRvrr+4eFNWlDtlMYNG4R4SvpwEv+gBpxoNAo+bEq2i/ZCdwmsWF3aOmODnfz/g0U2rpnwuGThR6wnS2wHA/dmHQsz0FZq9yFlfVTgVzvu4Uigia9JEkeIwiklmCxvB3AkaYQYlvXrOZG8W0x7l4D8gQ3bz7LgZZ03z5hZjpQ25AY94ixOC4UjXQ6IUFENxvcbCxxS0siFJlN2oE3CrhkKd2DxFT2aMY0dL3J+jCyIh4pq8qkNEb0pQr97AgHXB23tCzmkOuoRMwOI7DcJqD3AQMZL5CkSLkCdOm3mLK2ccpBmH8U8TxBjQvEXsS43OpAfnOgHc4m6AwMXXdWEIT0TXL1iGqPh7NbUcpAIL6FiP5MDJe1oV0lbkG3+tqfYu4Fjo37+DD/ZEP7GNgNxiztJMprghD8KL6ysIfLZ7GLD3SD3FR1LI7lorcYwRDLJOd089oiH8GtRvPDTDsQUxdl5FCdLlXXlxPwKRJ/fE9NPQG3BRN7l6BOBUvrU8TqREDCmxg10mfLqRx8urMchJpPP/hHjQEfQmXcYMX1cMwocnzZVhI9DDBBGwhpx8ukHJCJ+9vCClbK0eAndi5jkI5Hf7sdD4DZgxreAMQGw/NIY5pkQB9cQ4JJ/hD90umsjLEuBuASIw6UMKlsPLZaQ5GNag8pNYCVq1tFnLz2MZ8irFzZe24XMFwWp1O/jvcTY8oR/UpBL/UcrdarRbKpso+3SAy225Is4VYzdUXws2eVmg6kdmHc4XFGTpbXMJWjaoWj9PaPu1gLQCi3droJboMLWqVyL2evRl+yTjG9bmo8YR6rRrW/6ptil996uOXgGMm2KFYZynRR2fzmwZWID/lo9+zFiLSnXei2wkuzNfIyVTK8qiUQpBr3QjILRumnHcmAUGczUpYTqoyqPfTpvY9sos4RCVUW2rOXw9ZhAH3YcQIfju5+tQupdtqKerAUF9gDrd88N90Qw3bxe4ynts4avh3gjDcBBxYhD2zG7Co7jMVBVouInkjiPkvRzL7Y9/6b34TUE3toGjUbBxdLbGslL5cLaJjWlcCjP8gSg6YgYntMBLu44YSHUO3ioNYaAL3vKJvK/tXZIBwAA23CZAytkfMZuQA5sbjTufAQ6cQYm/AL3Y38bTG46MrQSpONJh/ghb6O/rwjK5plwKFKElU+mmufhA1FazAoma4y9Ear6BZL7AHEqBWG9T4YKsA2L/+fjC4JpZoHWGY27PsakzlfcECBnoYGegei3IUYzgRdsgwLdfiI8N+NMpHnB7z9IHLOgTl2/BfKLc/75gRJ+NkiL5N0IhAZKGJzb+NK5EW7uh3+XjzVkBWNuZ5CY1VXx+DBnoOu/F5uz2Pd9HDbe9GSqEGTfArNBxdkUXr9BapF/f4pNOZ2qcpMKZHWUo0Dc/7b9xjyezEzlsuLWXfIqUPOrRf5EzBrgBYTCR+ETU3BUqwV2vfWqCt1kZNMMbflyFmKTogGf7IUIKvcvixeNsXeFHaIQQ7QC747OWNsZNcXi7G55nAphMpxrrGn6HTt6WbQ2aEv6oHObbJhLJZ7nKzA7XN4tQo5xbjWY5lB2Pu9troGV+Ge/sX9TrxW+HdzStLJ+OosFbAk4kur8FDltcz1PIi3TUzvu1K82NI65dkeLVS29QaGWsJ4kKwfqEdEahnxJvrGGJhApUm8cpEHcZQHa6nrP/ywN1vxseENsWpBHZl+PXqisl5dB+axrwQSdOSuDWTKjCVKZUTGegBP4aY4KXYSxKXN6NXV0tG0Pm3US/lU6le6StjjBXFYcLq1St0r7QfQ7Dcic1Qbg1rmUq1UmvHB526kvg3Rb1ZOUq+Eh+NUNeNKMnCh51jogMijQx93Cc0XiELMQLVlEvpRC//kgneBXKiZpalYr7HBlB3+FFP05bJqXSnSE8rPcIQBu2EZs3/J5AyFez+ijBlQ4dONdOooT6sGlGyh6SUo6UvBv+a2Q3pOGh0tTxiBn/qs+1Q0XsTZ7OnD0NM5oDFmFet+T6ESC/cz5uDRalSK75pdA2iamMYxjpMuL3PuwtxwofCEC9cT/sp8kqnOfj4+Bg062CHwBISpFP4MMSUddhGFswmwyABDMHd8mFIp0P+lYu+zwK0GjxXH/8QF1Phafzr9n4fwBBK2vn4+BAHwLLh/7q938d1m603Q+FIQ3nPr7ETOIAhbHjxZoi7LiCcVvvX7f0+oBYC2Ck+DC8yjZe/Itj0ZBgMvWsLixDwLpVfnJvwHABDqEniUiWYAZM0IXrwT9+C9DNAmHzD+aXVYNC4/0cZlulCgA/DOcugedEbV56JUuWRkgWCTmshd1//hqdfAzxJKFngmTmEed6BlS8JGFgQnPPK2wyxbfl50tuf/42Xyn0LuGgEv3gyhFSjnsrWtf4Y0PkHDem18w33t6X5Pzkd0iVHCGN4VYvCQBvYd3/yDY+wlAPBYo/CGrj7C9KQX5bV/VQYJd88qhRhUiMkP8b/4HRI370BzsXSfcpHiybFonZ/DxB8acheKfu0BrTyRxUNDaBVoemuA5GmpVaJZfD3wlCAVJwV1nAq1E27EDQpbHEa/clhiPnMfBwi/W5JQ5iRWOT/RKzUEZCEUgVjxTkJHkvqofdb+5tCSnNw+Cb0k8NWUlGKAsEIdOHkDxqliBQsQNE18MPJ2ovC6UKTZmDSDDh3NEhgthvWk5MXOWNPDWYzbOkLu3DzH5oFfxRZXKqhdR313R5tm9xsH2NvOORS+I6J4V+VUQB9iSnz/bRplMBUjjcxwDXzPzpTUNDsDb7jYFfLvU/MTqi9eH/Ms5Gg6/5F+wtTs/0vmlRc/OMEjewNvjBSbsKYUAZxmtKlfv1pEaUosdSGbiPe6tTrnUmxnTGSZzalP+lS2JG9ZUhbUfu706AdpaE9p6tcaXf+D+TThHQr3mCiqVZr8YHyJ4MW3oiklU7n6+urU+//o3yuN94IFrL2l6cVbbHeznIEs1h0dZ/UflwQk50dXpoPwCsjXtbIn0Oe7k8SvnBAoC+Yj1lfA7KanU7sMDntlFvfDq9Pp+3L2/ttaDtJEHP72G69Xu/G21lINF71DIC3LRBncn+mh/fExZRm19d+RAUx5nLb/w5g54YQmxpZ79pqPSOMjA2l2iInirnxwpDN43R9EUVhx7rxUYZ5xYJw/pWT1TwniGuzWMrzvcB2bHKRaE6QzlPLWJvviDCP6RWPMgzz3bJ6Rbka/3qduSGvJWF7tH62FFicWF6EBGlnf9WOFg0JbO//NxjW4sPhsN1ubza1MjEZ4y9b6NL2grSwy8xOpGXqlqQHd8f7a6JkMGI1sMcZFj7lCEMylR7yavw7ieTyL6RaI700t3+4PNHXtO8F8Xz3siSOKies3/oNhpZtKVDf5xsrzqWM+nMnXTvRkp7WD4l2nXLc9MQ2GN9B34pI7acMYRfeN/IiSplfvMdHE0LiHcPIebslDLcCrXfigENImB1/wTD7wRceF9Pf9eHMYRxS6KykneOxvQClFX/MMPLFq487p79jOBaFvdNYg9Rp0a5lbxjje4V+zFDuvIwhbLgVY0unI2OBFmV3xAJro/68D5t8GRlGSp2P0ejDqL8BSJbqLfLZ4CuMnyXT6XpVVdKlEgbu03DwoxkmMt4LpyEiWspyKaVJrsCre8pk8NHqmO4H75sX9+vVfW9tReO1Sg6YYxmGHzPMF/kGaJrSsEK3TxQaTePcjVFbpVqDbYiJTKXaLVcrVShakR5W6NbBwqbETaojCEF1+9lNQaWJQ70Bi2OQ+13H3pIYnvDWxPNuqpsHpLYXQwfODTqurf6YYbgMRYxkeCvBRz6bzX9uVKz6QQjxakPJpsisGa6psB2mFx9uCuV2fFjsQa5luR3OZrOleJcvfUCKQjbOKzW+Em+2iqh0C61sKpkqxY37AeTDDN0K3IF/uJbF0C+2eicWaKiGfsgwQlpS6cHH5Q+jGeEMP4Jebd9yQpItle6PSGdUNIESZfW6ITnRrm5UynDET+hdEtVbRdl+lb6QgGG128P+WkJSOkmxBb53T9+LrqqU4LsMvxJphlK42eUrfZnLVtTBbcooqd06edzV7m0xOl2jRX6ZpokMzesPibZKGaplVrAjWaTbwBnFctf67pjlNDqO7UPEdxJPofVSxj70YJj7HsNu+QooOhUPR2CHh2UHdQtSCSJVU2/Lg0rdxJB0s3kpXqkyhiqzcRN8wWwoNbGYvRXafHHY7UOSIF1WMpT6eZ6UdhttA8P4RME21VTLwnMalmnljDq4GTu9Ut7EsNNVLRu9akxKjS0GHWvV4x6rXXDX9OV0R7TrZS4/V9N08jewPZK8VYyyZXi3+YSvDvp5a5UkylBuqdYNIXGmaYx3N2yse++IULvt0dYOEryO7CwKO9c2z7FK9o91KSDLV6zmeA1alIKKjbV2/KMTvgZ1KcPIh+1NoYYuNXiVyxvY1cYwGDXcM2blmChc9CirruWIaEg8y79j2OMbFilKxrFFcrpVwcB8uVuZJK0MrXtcKcPitaf4sn0PZl3mtO02dmd407yN5coozuQA+SyEfmO1AUgfWjyo1OYmVdn+JL5pFNj2AUNKaXmeK+I2huVy5+qEUkC+20kUHBSmTnTqiiPT5NqlyfMZKtpfMZT5gnUcdlWb4VPPqI0bQ+6r3DUfjlBNc2O4cdoDK4sh0UFhHpFhVKIlzx0u2wn4nuBfMeQaatP8Z4KvhIn2NEvuV7cLncgYkkncnNYUrtgYdmjhRQPZPhq2W1Ea3w82XYC3P5AZQVg7jkTShfhgfsewzg/N0Rqcv5rlhkk7hCvl0o1hts2PbgdTRZzxUzeGCWtWUIfaBwfpVhDyhpWEpb1JJ+acnMdjTBD38q8ZZgtlU05rmgwjsESqplYq1W6PMsTOU9TCl2EEZSfdqo1hpGhOP8xX+CbcfWkqsHvDWMLXc2oxSZzdC/FxHBJpyZ7fMeQUvnqt8FGqYYZhsqoWr5ZcckRnwESDjlB5wheGn/kIJ2eVNj8p2hhy6erNDEwZJp4MNV/t096KCOmClk2WxJzdhVpujQJx37FpnBgmiZe4USJgio8KLM/8k1c3Cg6nSHio0rReomUznT5x+WCjK3GkiD+l8pPIgOnSmykXJnf5hItTSoMvsOprywuxt/eWXoQoKa1SyC33ksAqFjLIUePtn99iWHU0L2SlUTaWpY0hpmASRbmMmRVh4zPyJ0pqqjNsZDKNzaQHmaW0D03Gai8Oi/lwg+rwapQu4a3zp+2C1dmbR3NmUjqRSFG6HPDoUZ+ORQlruU1ZRDgUyt3jbo7JKmGXIHe2/lGMx4sfnZvOSYZbo2IxXhy1wpHbaZOWkRUjp5hNNwJ7TU6HLeGQ0mQUj8dHLbNNr69hNUaSoK0h4SQRd9gc516cb0fJ/4I4O5NnckIlG5XgkB0nd2PPCbJTvNfxs17CQmaoOm96dbjhPBq75FhTQ7Pt2moDaIvd1jgqzPa7qbw8s2j/dOwId5fkV5BHFfMEmm+o34gqH+fTxSEajR4W0/l95E1ervAoObxC8dV3xF1eQ11MRwS1svTB10xB1q9y9dvbCT2XB2Rz5x8PwsXZ3AkSZMq8xpfkz0qwqeny1M0oDxJffLn9mU9GIlkl3jUbOP8/UK51yMqN15YgexnkdAfCxa3OvyjR9cYbb7zxxhtvvPHGG2+88cYbb7zxxn8W/wOwxrpbgszuRwAAAABJRU5ErkJggg==;" vertex="1" parent="39">
                    <mxGeometry x="59.99809523809524" y="30" width="181.5" height="181.5" as="geometry"/>
                </mxCell>
                <mxCell id="43" value="&lt;span&gt;github Actions&lt;/span&gt;" style="rounded=0;whiteSpace=wrap;html=1;fontSize=35;fontColor=#000000;strokeColor=none;strokeWidth=8;fillColor=none;fontStyle=0" vertex="1" parent="1">
                    <mxGeometry x="60" y="-750" width="290" height="60" as="geometry"/>
                </mxCell>
                <mxCell id="28" value="" style="rounded=0;whiteSpace=wrap;html=1;fontSize=21;strokeColor=#003366;strokeWidth=5;fillColor=#FFFFFF;" vertex="1" parent="1">
                    <mxGeometry x="100" y="80" width="150" height="140" as="geometry"/>
                </mxCell>
                <mxCell id="8" value="" style="shape=image;verticalLabelPosition=bottom;labelBackgroundColor=#ffffff;verticalAlign=top;aspect=fixed;imageAspect=0;image=https://d1.awsstatic.com/acs/characters/Logos/Docker-Logo_Horizontel_279x131.b8a5c41e56b77706656d61080f6a0217a3ba356d.png;" vertex="1" parent="1">
                    <mxGeometry x="36.00411764705882" y="87.99647058823513" width="279" height="131" as="geometry"/>
                </mxCell>
                <mxCell id="46" style="edgeStyle=none;shape=flexArrow;html=1;fontSize=35;fontColor=#000000;startArrow=none;startFill=0;endArrow=block;endFill=0;strokeColor=#003366;strokeWidth=10;" edge="1" parent="1">
                    <mxGeometry relative="1" as="geometry">
                        <mxPoint x="211" y="-520" as="sourcePoint"/>
                        <mxPoint x="211" y="-450" as="targetPoint"/>
                    </mxGeometry>
                </mxCell>
                <mxCell id="47" style="edgeStyle=none;shape=flexArrow;html=1;fontSize=35;fontColor=#000000;startArrow=none;startFill=0;endArrow=block;endFill=0;strokeColor=#003366;strokeWidth=10;" edge="1" parent="1">
                    <mxGeometry relative="1" as="geometry">
                        <mxPoint x="224" y="-130" as="sourcePoint"/>
                        <mxPoint x="224" as="targetPoint"/>
                    </mxGeometry>
                </mxCell>
                <mxCell id="50" style="edgeStyle=none;shape=flexArrow;html=1;fontSize=35;fontColor=#000000;startArrow=block;startFill=0;endArrow=none;endFill=0;strokeColor=#003366;strokeWidth=10;" edge="1" parent="1" source="49">
                    <mxGeometry relative="1" as="geometry">
                        <mxPoint y="275" as="targetPoint"/>
                    </mxGeometry>
                </mxCell>
                <mxCell id="49" value="" style="shape=actor;whiteSpace=wrap;html=1;fontSize=35;fontColor=#000000;strokeColor=#003366;strokeWidth=8;fillColor=none;" vertex="1" parent="1">
                    <mxGeometry x="-290" y="150" width="170" height="250" as="geometry"/>
                </mxCell>
                <mxCell id="51" value="ユーザー" style="text;html=1;strokeColor=none;fillColor=none;align=center;verticalAlign=middle;whiteSpace=wrap;rounded=0;fontSize=42;fontColor=#000000;fontStyle=1" vertex="1" parent="1">
                    <mxGeometry x="-290" y="420" width="180" height="30" as="geometry"/>
                </mxCell>
                <mxCell id="12" style="edgeStyle=none;html=1;fontSize=21;endArrow=none;endFill=0;strokeWidth=6;shape=flexArrow;startArrow=block;strokeColor=#003366;fillColor=#FFFFFF;" edge="1" parent="1">
                    <mxGeometry relative="1" as="geometry">
                        <mxPoint x="880" y="300" as="targetPoint"/>
                        <mxPoint x="770" y="300" as="sourcePoint"/>
                    </mxGeometry>
                </mxCell>
            </root>
        </mxGraphModel>
    </diagram>
</mxfile>